REM DIRINDEX 1\2\6,1\2\7,1\2\8,1\2\9,1\3\10,1\3\11,1\4\12,1\4\13,1\4\14,1\5\15,1\5\16,1\5\17
REM DIRNAME cjc020,folder01,folder02,folder03,folder04,folder05,folder06,folder07,folder08,folder09,folder10,folder11,folder12,folder13,folder14,folder15,folder16
TITLE ""
FILE "1900_2_sec05_0432_0446.mp3" MP3
  TRACK 01 AUDIO
    TITLE "0:"
    INDEX 01 00:00:00
  TRACK 02 AUDIO
    TITLE "13:cjc020_2967"
    INDEX 01 00:00:17
  TRACK 03 AUDIO
    TITLE "0:"
    INDEX 01 00:01:32
  TRACK 04 AUDIO
    TITLE "14:cjc020_2968"
    INDEX 01 00:01:38
  TRACK 05 AUDIO
    TITLE "0:"
    INDEX 01 00:02:59
  TRACK 06 AUDIO
    TITLE "13:cjc020_2969"
    INDEX 01 00:03:39
  TRACK 07 AUDIO
    TITLE "0:"
    INDEX 01 00:04:50
  TRACK 08 AUDIO
    TITLE "14:cjc020_2970"
    INDEX 01 00:04:54
  TRACK 09 AUDIO
    TITLE "0:"
    INDEX 01 00:09:32
  TRACK 10 AUDIO
    TITLE "13:cjc020_2971"
    INDEX 01 00:10:12
  TRACK 11 AUDIO
    TITLE "0:"
    INDEX 01 00:11:11
  TRACK 12 AUDIO
    TITLE "14:cjc020_2972"
    INDEX 01 00:11:17
  TRACK 13 AUDIO
    TITLE "0:"
    INDEX 01 00:15:68
  TRACK 14 AUDIO
    TITLE "13:cjc020_2973"
    INDEX 01 00:16:49
  TRACK 15 AUDIO
    TITLE "0:"
    INDEX 01 00:17:47
  TRACK 16 AUDIO
    TITLE "14:cjc020_2974"
    INDEX 01 00:17:51
  TRACK 17 AUDIO
    TITLE "0:"
    INDEX 01 00:24:08
  TRACK 18 AUDIO
    TITLE "13:cjc020_2975"
    INDEX 01 00:24:65
  TRACK 19 AUDIO
    TITLE "0:"
    INDEX 01 00:25:56
  TRACK 20 AUDIO
    TITLE "14:cjc020_2976"
    INDEX 01 00:25:64
  TRACK 21 AUDIO
    TITLE "0:"
    INDEX 01 00:28:62
  TRACK 22 AUDIO
    TITLE "13:cjc020_2977"
    INDEX 01 00:29:46
  TRACK 23 AUDIO
    TITLE "0:"
    INDEX 01 00:30:54
  TRACK 24 AUDIO
    TITLE "14:cjc020_2978"
    INDEX 01 00:30:55
  TRACK 25 AUDIO
    TITLE "0:"
    INDEX 01 00:32:03
  TRACK 26 AUDIO
    TITLE "13:cjc020_2979"
    INDEX 01 00:32:58
  TRACK 27 AUDIO
    TITLE "0:"
    INDEX 01 00:33:71
  TRACK 28 AUDIO
    TITLE "14:cjc020_2980"
    INDEX 01 00:34:02
  TRACK 29 AUDIO
    TITLE "0:"
    INDEX 01 00:37:05
  TRACK 30 AUDIO
    TITLE "13:cjc020_2981"
    INDEX 01 00:37:57
  TRACK 31 AUDIO
    TITLE "0:"
    INDEX 01 00:39:09
  TRACK 32 AUDIO
    TITLE "14:cjc020_2982"
    INDEX 01 00:39:13
  TRACK 33 AUDIO
    TITLE "0:"
    INDEX 01 00:41:32
  TRACK 34 AUDIO
    TITLE "13:cjc020_2983"
    INDEX 01 00:42:12
  TRACK 35 AUDIO
    TITLE "0:"
    INDEX 01 00:43:29
  TRACK 36 AUDIO
    TITLE "14:cjc020_2984"
    INDEX 01 00:43:33
  TRACK 37 AUDIO
    TITLE "0:"
    INDEX 01 00:47:32
  TRACK 38 AUDIO
    TITLE "12:cjc020_2985"
    INDEX 01 00:49:10
  TRACK 39 AUDIO
    TITLE "0:"
    INDEX 01 00:50:33
  TRACK 40 AUDIO
    TITLE "13:cjc020_2986"
    INDEX 01 00:51:30
  TRACK 41 AUDIO
    TITLE "0:"
    INDEX 01 00:52:32
  TRACK 42 AUDIO
    TITLE "14:cjc020_2987"
    INDEX 01 00:52:36
  TRACK 43 AUDIO
    TITLE "0:"
    INDEX 01 00:54:62
  TRACK 44 AUDIO
    TITLE "13:cjc020_2988"
    INDEX 01 00:55:46
  TRACK 45 AUDIO
    TITLE "0:"
    INDEX 01 00:56:65
  TRACK 46 AUDIO
    TITLE "14:cjc020_2989"
    INDEX 01 00:56:67
  TRACK 47 AUDIO
    TITLE "0:"
    INDEX 01 01:01:17
  TRACK 48 AUDIO
    TITLE "13:cjc020_2990"
    INDEX 01 01:01:70
  TRACK 49 AUDIO
    TITLE "0:"
    INDEX 01 01:02:65
  TRACK 50 AUDIO
    TITLE "14:cjc020_2991"
    INDEX 01 01:02:67
  TRACK 51 AUDIO
    TITLE "0:"
    INDEX 01 01:04:05
  TRACK 52 AUDIO
    TITLE "13:cjc020_2992"
    INDEX 01 01:04:62
  TRACK 53 AUDIO
    TITLE "0:"
    INDEX 01 01:06:08
  TRACK 54 AUDIO
    TITLE "14:cjc020_2993"
    INDEX 01 01:06:14
  TRACK 55 AUDIO
    TITLE "0:"
    INDEX 01 01:09:65
  TRACK 56 AUDIO
    TITLE "13:cjc020_2994"
    INDEX 01 01:10:47
  TRACK 57 AUDIO
    TITLE "0:"
    INDEX 01 01:11:52
  TRACK 58 AUDIO
    TITLE "14:cjc020_2995"
    INDEX 01 01:11:56
  TRACK 59 AUDIO
    TITLE "0:"
    INDEX 01 01:12:62
  TRACK 60 AUDIO
    TITLE "13:cjc020_2996"
    INDEX 01 01:13:42
  TRACK 61 AUDIO
    TITLE "0:"
    INDEX 01 01:14:39
  TRACK 62 AUDIO
    TITLE "14:cjc020_2997"
    INDEX 01 01:14:43
  TRACK 63 AUDIO
    TITLE "0:"
    INDEX 01 01:15:48
